<mxfile host="app.diagrams.net" modified="2023-10-24T16:21:04.440Z" agent="Mozilla/5.0 (Macintosh; Intel Mac OS X 10_15_7) AppleWebKit/605.1.15 (KHTML, like Gecko) Version/16.5 Safari/605.1.15" etag="iN2UOjeZY0JyqNbdQr57" version="22.0.6" type="github">
  <diagram name="Page-1" id="ZRt7XOUPXMr7D1SCCJ1l">
    <mxGraphModel dx="1122" dy="760" grid="1" gridSize="10" guides="1" tooltips="1" connect="1" arrows="1" fold="1" page="1" pageScale="1" pageWidth="2400" pageHeight="2400" math="0" shadow="0">
      <root>
        <mxCell id="0" />
        <mxCell id="1" parent="0" />
        <mxCell id="W1SMByUnJdoFZy77ZxDQ-3" value="IDLE" style="rounded=1;whiteSpace=wrap;html=1;" vertex="1" parent="1">
          <mxGeometry x="80" y="240" width="120" height="60" as="geometry" />
        </mxCell>
        <mxCell id="W1SMByUnJdoFZy77ZxDQ-4" value="ENTER PIN" style="rounded=1;whiteSpace=wrap;html=1;" vertex="1" parent="1">
          <mxGeometry x="630" y="220" width="120" height="60" as="geometry" />
        </mxCell>
        <mxCell id="W1SMByUnJdoFZy77ZxDQ-5" value="INSERT CARD&amp;nbsp;" style="rounded=1;whiteSpace=wrap;html=1;" vertex="1" parent="1">
          <mxGeometry x="350" y="160" width="120" height="60" as="geometry" />
        </mxCell>
        <mxCell id="W1SMByUnJdoFZy77ZxDQ-6" value="SELECT TRANSACTION" style="rounded=1;whiteSpace=wrap;html=1;" vertex="1" parent="1">
          <mxGeometry x="350" y="320" width="120" height="60" as="geometry" />
        </mxCell>
        <mxCell id="W1SMByUnJdoFZy77ZxDQ-7" value="DEPOSIT" style="rounded=1;whiteSpace=wrap;html=1;" vertex="1" parent="1">
          <mxGeometry x="350" y="540" width="120" height="60" as="geometry" />
        </mxCell>
        <mxCell id="W1SMByUnJdoFZy77ZxDQ-8" value="COMPLETE TRANSACTION&amp;nbsp;" style="rounded=1;whiteSpace=wrap;html=1;" vertex="1" parent="1">
          <mxGeometry x="350" y="750" width="120" height="60" as="geometry" />
        </mxCell>
        <mxCell id="W1SMByUnJdoFZy77ZxDQ-9" value="WITHDRAW" style="rounded=1;whiteSpace=wrap;html=1;" vertex="1" parent="1">
          <mxGeometry x="560" y="450" width="120" height="60" as="geometry" />
        </mxCell>
        <mxCell id="W1SMByUnJdoFZy77ZxDQ-10" value="TRANSFER" style="rounded=1;whiteSpace=wrap;html=1;" vertex="1" parent="1">
          <mxGeometry x="150" y="450" width="120" height="60" as="geometry" />
        </mxCell>
        <mxCell id="W1SMByUnJdoFZy77ZxDQ-11" value="EJECT CARD&amp;nbsp;" style="rounded=1;whiteSpace=wrap;html=1;" vertex="1" parent="1">
          <mxGeometry x="370" y="880" width="120" height="60" as="geometry" />
        </mxCell>
        <mxCell id="W1SMByUnJdoFZy77ZxDQ-12" value="IDLE" style="rounded=1;whiteSpace=wrap;html=1;" vertex="1" parent="1">
          <mxGeometry x="650" y="880" width="120" height="60" as="geometry" />
        </mxCell>
        <mxCell id="W1SMByUnJdoFZy77ZxDQ-13" value="" style="endArrow=classic;html=1;rounded=0;entryX=0;entryY=0.75;entryDx=0;entryDy=0;" edge="1" parent="1" target="W1SMByUnJdoFZy77ZxDQ-5">
          <mxGeometry width="50" height="50" relative="1" as="geometry">
            <mxPoint x="200" y="250" as="sourcePoint" />
            <mxPoint x="250" y="200" as="targetPoint" />
          </mxGeometry>
        </mxCell>
        <mxCell id="W1SMByUnJdoFZy77ZxDQ-14" value="" style="endArrow=classic;html=1;rounded=0;entryX=0;entryY=0;entryDx=0;entryDy=0;" edge="1" parent="1" target="W1SMByUnJdoFZy77ZxDQ-4">
          <mxGeometry width="50" height="50" relative="1" as="geometry">
            <mxPoint x="470" y="200" as="sourcePoint" />
            <mxPoint x="520" y="150" as="targetPoint" />
          </mxGeometry>
        </mxCell>
        <mxCell id="W1SMByUnJdoFZy77ZxDQ-16" value="" style="endArrow=classic;html=1;rounded=0;exitX=0;exitY=1;exitDx=0;exitDy=0;entryX=1;entryY=0.25;entryDx=0;entryDy=0;" edge="1" parent="1" target="W1SMByUnJdoFZy77ZxDQ-6">
          <mxGeometry width="50" height="50" relative="1" as="geometry">
            <mxPoint x="630" y="280" as="sourcePoint" />
            <mxPoint x="530" y="355" as="targetPoint" />
          </mxGeometry>
        </mxCell>
        <mxCell id="W1SMByUnJdoFZy77ZxDQ-17" value="" style="endArrow=classic;html=1;rounded=0;" edge="1" parent="1">
          <mxGeometry width="50" height="50" relative="1" as="geometry">
            <mxPoint x="350" y="380" as="sourcePoint" />
            <mxPoint x="270" y="450" as="targetPoint" />
          </mxGeometry>
        </mxCell>
        <mxCell id="W1SMByUnJdoFZy77ZxDQ-18" value="" style="endArrow=classic;html=1;rounded=0;exitX=0.433;exitY=1.05;exitDx=0;exitDy=0;exitPerimeter=0;entryX=0.442;entryY=-0.017;entryDx=0;entryDy=0;entryPerimeter=0;" edge="1" parent="1" target="W1SMByUnJdoFZy77ZxDQ-7">
          <mxGeometry width="50" height="50" relative="1" as="geometry">
            <mxPoint x="401.96000000000004" y="380" as="sourcePoint" />
            <mxPoint x="392" y="535.02" as="targetPoint" />
          </mxGeometry>
        </mxCell>
        <mxCell id="W1SMByUnJdoFZy77ZxDQ-19" value="" style="endArrow=classic;html=1;rounded=0;exitX=1;exitY=1;exitDx=0;exitDy=0;" edge="1" parent="1" source="W1SMByUnJdoFZy77ZxDQ-6">
          <mxGeometry width="50" height="50" relative="1" as="geometry">
            <mxPoint x="460" y="500" as="sourcePoint" />
            <mxPoint x="560" y="450" as="targetPoint" />
          </mxGeometry>
        </mxCell>
        <mxCell id="W1SMByUnJdoFZy77ZxDQ-21" value="" style="endArrow=classic;html=1;rounded=0;exitX=0.5;exitY=1;exitDx=0;exitDy=0;entryX=0.5;entryY=0;entryDx=0;entryDy=0;" edge="1" parent="1" source="W1SMByUnJdoFZy77ZxDQ-7" target="W1SMByUnJdoFZy77ZxDQ-8">
          <mxGeometry width="50" height="50" relative="1" as="geometry">
            <mxPoint x="460" y="570" as="sourcePoint" />
            <mxPoint x="510" y="520" as="targetPoint" />
          </mxGeometry>
        </mxCell>
        <mxCell id="W1SMByUnJdoFZy77ZxDQ-23" value="Read card&amp;nbsp;" style="text;html=1;strokeColor=none;fillColor=none;align=center;verticalAlign=middle;whiteSpace=wrap;rounded=0;" vertex="1" parent="1">
          <mxGeometry x="520" y="160" width="60" height="50" as="geometry" />
        </mxCell>
        <mxCell id="W1SMByUnJdoFZy77ZxDQ-24" value="Verify Pin&lt;br&gt;Right Credentials / Home Screen" style="text;html=1;align=center;verticalAlign=middle;resizable=0;points=[];autosize=1;strokeColor=none;fillColor=none;" vertex="1" parent="1">
          <mxGeometry x="500" y="320" width="200" height="40" as="geometry" />
        </mxCell>
        <mxCell id="W1SMByUnJdoFZy77ZxDQ-25" value="Re-enter Pin" style="rounded=1;whiteSpace=wrap;html=1;" vertex="1" parent="1">
          <mxGeometry x="720" y="340" width="120" height="60" as="geometry" />
        </mxCell>
        <mxCell id="W1SMByUnJdoFZy77ZxDQ-26" value="" style="endArrow=classic;html=1;rounded=0;exitX=0.983;exitY=0.9;exitDx=0;exitDy=0;exitPerimeter=0;entryX=0.5;entryY=0;entryDx=0;entryDy=0;" edge="1" parent="1" source="W1SMByUnJdoFZy77ZxDQ-4" target="W1SMByUnJdoFZy77ZxDQ-25">
          <mxGeometry width="50" height="50" relative="1" as="geometry">
            <mxPoint x="460" y="470" as="sourcePoint" />
            <mxPoint x="510" y="420" as="targetPoint" />
          </mxGeometry>
        </mxCell>
        <mxCell id="W1SMByUnJdoFZy77ZxDQ-27" value="Wrong Pin prompt to Pin Screen&lt;br&gt;&amp;nbsp;with error message wrong Pin" style="text;html=1;align=center;verticalAlign=middle;resizable=0;points=[];autosize=1;strokeColor=none;fillColor=none;" vertex="1" parent="1">
          <mxGeometry x="750" y="280" width="200" height="40" as="geometry" />
        </mxCell>
        <mxCell id="W1SMByUnJdoFZy77ZxDQ-28" value="" style="endArrow=classic;html=1;rounded=0;exitX=0;exitY=0.75;exitDx=0;exitDy=0;entryX=1;entryY=0.75;entryDx=0;entryDy=0;" edge="1" parent="1" source="W1SMByUnJdoFZy77ZxDQ-25" target="W1SMByUnJdoFZy77ZxDQ-6">
          <mxGeometry width="50" height="50" relative="1" as="geometry">
            <mxPoint x="716" y="372.99" as="sourcePoint" />
            <mxPoint x="504" y="358" as="targetPoint" />
          </mxGeometry>
        </mxCell>
        <mxCell id="W1SMByUnJdoFZy77ZxDQ-32" value="" style="endArrow=classic;html=1;curved=1;strokeColor=none;" edge="1" parent="1">
          <mxGeometry width="50" height="50" relative="1" as="geometry">
            <mxPoint x="770" y="500" as="sourcePoint" />
            <mxPoint x="820" y="450" as="targetPoint" />
            <Array as="points">
              <mxPoint x="820" y="500" />
              <mxPoint x="770" y="450" />
            </Array>
          </mxGeometry>
        </mxCell>
        <mxCell id="W1SMByUnJdoFZy77ZxDQ-33" value="" style="endArrow=classic;html=1;curved=1;" edge="1" parent="1">
          <mxGeometry width="50" height="50" relative="1" as="geometry">
            <mxPoint x="795" y="400" as="sourcePoint" />
            <mxPoint x="845" y="380" as="targetPoint" />
            <Array as="points">
              <mxPoint x="905" y="440" />
              <mxPoint x="855" y="390" />
            </Array>
          </mxGeometry>
        </mxCell>
        <mxCell id="W1SMByUnJdoFZy77ZxDQ-34" value="Wrong Pin prompt to Pin Screen&lt;br&gt;&amp;nbsp;with error message wrong Pin" style="text;html=1;align=center;verticalAlign=middle;resizable=0;points=[];autosize=1;strokeColor=none;fillColor=none;" vertex="1" parent="1">
          <mxGeometry x="810" y="430" width="200" height="40" as="geometry" />
        </mxCell>
        <mxCell id="W1SMByUnJdoFZy77ZxDQ-35" value="INSUFFIECIENT FUNDS" style="rounded=1;whiteSpace=wrap;html=1;" vertex="1" parent="1">
          <mxGeometry x="140" y="630" width="120" height="60" as="geometry" />
        </mxCell>
        <mxCell id="W1SMByUnJdoFZy77ZxDQ-36" value="INSUFFIECIENT FUNDS" style="rounded=1;whiteSpace=wrap;html=1;" vertex="1" parent="1">
          <mxGeometry x="570" y="630" width="120" height="60" as="geometry" />
        </mxCell>
        <mxCell id="W1SMByUnJdoFZy77ZxDQ-40" value="" style="edgeStyle=segmentEdgeStyle;endArrow=classic;html=1;curved=0;rounded=0;endSize=8;startSize=8;entryX=0.45;entryY=1.05;entryDx=0;entryDy=0;entryPerimeter=0;exitX=0;exitY=0.5;exitDx=0;exitDy=0;" edge="1" parent="1" source="W1SMByUnJdoFZy77ZxDQ-10" target="W1SMByUnJdoFZy77ZxDQ-8">
          <mxGeometry width="50" height="50" relative="1" as="geometry">
            <mxPoint x="100" y="480" as="sourcePoint" />
            <mxPoint x="310" y="820" as="targetPoint" />
            <Array as="points">
              <mxPoint x="110" y="480" />
              <mxPoint x="110" y="840" />
              <mxPoint x="404" y="840" />
            </Array>
          </mxGeometry>
        </mxCell>
        <mxCell id="W1SMByUnJdoFZy77ZxDQ-42" value="" style="endArrow=classic;html=1;rounded=0;entryX=0.5;entryY=0;entryDx=0;entryDy=0;" edge="1" parent="1" target="W1SMByUnJdoFZy77ZxDQ-35">
          <mxGeometry width="50" height="50" relative="1" as="geometry">
            <mxPoint x="200" y="510" as="sourcePoint" />
            <mxPoint x="520" y="550" as="targetPoint" />
          </mxGeometry>
        </mxCell>
        <mxCell id="W1SMByUnJdoFZy77ZxDQ-43" value="Insufficient funds error &lt;br&gt;message to put sufficient funds" style="text;html=1;align=center;verticalAlign=middle;resizable=0;points=[];autosize=1;strokeColor=none;fillColor=none;" vertex="1" parent="1">
          <mxGeometry x="550" y="540" width="190" height="40" as="geometry" />
        </mxCell>
        <mxCell id="W1SMByUnJdoFZy77ZxDQ-44" value="" style="edgeStyle=elbowEdgeStyle;elbow=horizontal;endArrow=classic;html=1;curved=0;rounded=0;endSize=8;startSize=8;entryX=1;entryY=0.5;entryDx=0;entryDy=0;" edge="1" parent="1" target="W1SMByUnJdoFZy77ZxDQ-10">
          <mxGeometry width="50" height="50" relative="1" as="geometry">
            <mxPoint x="260" y="670" as="sourcePoint" />
            <mxPoint x="275" y="410" as="targetPoint" />
            <Array as="points">
              <mxPoint x="325" y="440" />
            </Array>
          </mxGeometry>
        </mxCell>
        <mxCell id="W1SMByUnJdoFZy77ZxDQ-45" value="Sufficient funds" style="text;html=1;align=center;verticalAlign=middle;resizable=0;points=[];autosize=1;strokeColor=none;fillColor=none;" vertex="1" parent="1">
          <mxGeometry x="5" y="618" width="110" height="30" as="geometry" />
        </mxCell>
        <mxCell id="W1SMByUnJdoFZy77ZxDQ-47" value="" style="endArrow=classic;html=1;rounded=0;entryX=0.5;entryY=0;entryDx=0;entryDy=0;" edge="1" parent="1">
          <mxGeometry width="50" height="50" relative="1" as="geometry">
            <mxPoint x="625" y="510" as="sourcePoint" />
            <mxPoint x="625" y="630" as="targetPoint" />
          </mxGeometry>
        </mxCell>
        <mxCell id="W1SMByUnJdoFZy77ZxDQ-48" value="" style="edgeStyle=elbowEdgeStyle;elbow=horizontal;endArrow=classic;html=1;curved=0;rounded=0;endSize=8;startSize=8;entryX=1;entryY=0.5;entryDx=0;entryDy=0;" edge="1" parent="1" target="W1SMByUnJdoFZy77ZxDQ-9">
          <mxGeometry width="50" height="50" relative="1" as="geometry">
            <mxPoint x="690" y="670" as="sourcePoint" />
            <mxPoint x="700" y="480" as="targetPoint" />
            <Array as="points">
              <mxPoint x="755" y="440" />
            </Array>
          </mxGeometry>
        </mxCell>
        <mxCell id="W1SMByUnJdoFZy77ZxDQ-50" value="" style="edgeStyle=segmentEdgeStyle;endArrow=classic;html=1;curved=0;rounded=0;endSize=8;startSize=8;entryX=1.008;entryY=0.617;entryDx=0;entryDy=0;entryPerimeter=0;exitX=1;exitY=0.25;exitDx=0;exitDy=0;" edge="1" parent="1">
          <mxGeometry width="50" height="50" relative="1" as="geometry">
            <mxPoint x="680" y="470" as="sourcePoint" />
            <mxPoint x="470.00000000000006" y="782.02" as="targetPoint" />
            <Array as="points">
              <mxPoint x="875" y="470" />
              <mxPoint x="875" y="580" />
              <mxPoint x="879" y="580" />
              <mxPoint x="879" y="782" />
            </Array>
          </mxGeometry>
        </mxCell>
        <mxCell id="W1SMByUnJdoFZy77ZxDQ-51" value="" style="endArrow=classic;html=1;rounded=0;entryX=0.5;entryY=0;entryDx=0;entryDy=0;exitX=0.675;exitY=1.069;exitDx=0;exitDy=0;exitPerimeter=0;" edge="1" parent="1" source="W1SMByUnJdoFZy77ZxDQ-8" target="W1SMByUnJdoFZy77ZxDQ-11">
          <mxGeometry width="50" height="50" relative="1" as="geometry">
            <mxPoint x="460" y="720" as="sourcePoint" />
            <mxPoint x="510" y="670" as="targetPoint" />
          </mxGeometry>
        </mxCell>
        <mxCell id="W1SMByUnJdoFZy77ZxDQ-53" value="" style="endArrow=classic;html=1;rounded=0;entryX=0;entryY=0.5;entryDx=0;entryDy=0;exitX=1;exitY=0.5;exitDx=0;exitDy=0;" edge="1" parent="1" source="W1SMByUnJdoFZy77ZxDQ-11" target="W1SMByUnJdoFZy77ZxDQ-12">
          <mxGeometry width="50" height="50" relative="1" as="geometry">
            <mxPoint x="460" y="720" as="sourcePoint" />
            <mxPoint x="510" y="670" as="targetPoint" />
          </mxGeometry>
        </mxCell>
      </root>
    </mxGraphModel>
  </diagram>
</mxfile>
